<svg width="21" height="20" viewBox="0 0 21 20" fill="none" xmlns="http://www.w3.org/2000/svg">
<path d="M7.5 5.72222C4.5 5.72222 3.5 8.55556 3.5 10.9167C3.5 13.75 5.5 18 7.5 18C8.588 17.9566 9.179 17.5278 10.5 17.5278C11.812 17.5278 12 18 13.5 18C15 18 17.5 15.1667 17.5 13.2778C17.472 13.2683 15.028 12.8972 15 10.4444C14.981 8.395 17.416 7.65456 17.5 7.61111C16.477 6.202 14.549 5.75717 14 5.72222C12.567 5.61739 11.17 6.66667 10.5 6.66667C9.82 6.66667 8.6 5.72222 7.5 5.72222Z" stroke="#FAFBFC" stroke-width="1.6" stroke-linecap="round" stroke-linejoin="round"/>
<path d="M10.5 2.88889C11.0304 2.88889 11.5391 2.68988 11.9142 2.33565C12.2893 1.98141 12.5 1.50096 12.5 1C11.9696 1 11.4609 1.19901 11.0858 1.55324C10.7107 1.90748 10.5 2.38792 10.5 2.88889Z" stroke="#FAFBFC" stroke-width="1.6" stroke-linecap="round" stroke-linejoin="round"/>
</svg>
