<svg width="21" height="20" viewBox="0 0 21 20" fill="none" xmlns="http://www.w3.org/2000/svg">
<path d="M3 5.83329C3 5.39126 3.17559 4.96734 3.48816 4.65478C3.80072 4.34222 4.22464 4.16663 4.66667 4.16663H16.3333C16.7754 4.16663 17.1993 4.34222 17.5118 4.65478C17.8244 4.96734 18 5.39126 18 5.83329M3 5.83329V14.1666C3 14.6087 3.17559 15.0326 3.48816 15.3451C3.80072 15.6577 4.22464 15.8333 4.66667 15.8333H16.3333C16.7754 15.8333 17.1993 15.6577 17.5118 15.3451C17.8244 15.0326 18 14.6087 18 14.1666V5.83329M3 5.83329L10.5 10.8333L18 5.83329" stroke="#FAFBFC" stroke-width="1.6" stroke-linecap="round" stroke-linejoin="round"/>
</svg>
