<svg width="20" height="21" viewBox="0 0 20 21" fill="none" xmlns="http://www.w3.org/2000/svg">
<path d="M12.4999 3.8335H13.3333C13.5543 3.8335 13.7662 3.92129 13.9225 4.07757C14.0788 4.23385 14.1666 4.44582 14.1666 4.66683V7.5835M16.6666 5.50016C16.8866 5.5935 17.0999 5.681 17.3066 5.76266C17.51 5.84899 17.6708 6.01258 17.7537 6.21745C17.8365 6.42233 17.8346 6.65172 17.7483 6.85516L15.8333 11.3335M3.00326 6.49766L8.95159 3.90683C9.04974 3.86476 9.15533 3.84277 9.26211 3.84215C9.3689 3.84153 9.47473 3.8623 9.57337 3.90323C9.672 3.94415 9.76145 4.00442 9.83642 4.08046C9.9114 4.15651 9.97039 4.24679 10.0099 4.346L14.1133 14.2643C14.1985 14.4655 14.2014 14.692 14.1213 14.8953C14.0412 15.0985 13.8845 15.2622 13.6849 15.351L7.73742 17.9418C7.63922 17.984 7.53356 18.0061 7.42668 18.0068C7.3198 18.0075 7.21387 17.9868 7.11514 17.9458C7.0164 17.9049 6.92688 17.8446 6.85184 17.7685C6.7768 17.6923 6.71778 17.602 6.67826 17.5027L2.57492 7.5835C2.48963 7.38237 2.48673 7.1558 2.56684 6.95256C2.64696 6.74932 2.80367 6.5865 3.00326 6.49766Z" stroke="#FAFBFC" stroke-width="1.6" stroke-linecap="round" stroke-linejoin="round"/>
</svg>
