<svg width="20" height="20" viewBox="0 0 20 20" fill="none" xmlns="http://www.w3.org/2000/svg">
<path d="M4.16669 8.33341C4.16669 9.88051 4.78127 11.3642 5.87523 12.4582C6.96919 13.5522 8.45292 14.1667 10 14.1667M10 14.1667C11.5471 14.1667 13.0308 13.5522 14.1248 12.4582C15.2188 11.3642 15.8334 9.88051 15.8334 8.33341M10 14.1667V17.5001M6.66669 17.5001H13.3334M7.50002 4.16675C7.50002 3.50371 7.76341 2.86782 8.23225 2.39898C8.70109 1.93014 9.33698 1.66675 10 1.66675C10.6631 1.66675 11.2989 1.93014 11.7678 2.39898C12.2366 2.86782 12.5 3.50371 12.5 4.16675V8.33341C12.5 8.99646 12.2366 9.63234 11.7678 10.1012C11.2989 10.57 10.6631 10.8334 10 10.8334C9.33698 10.8334 8.70109 10.57 8.23225 10.1012C7.76341 9.63234 7.50002 8.99646 7.50002 8.33341V4.16675Z" stroke="#FAFBFC" stroke-width="1.6" stroke-linecap="round" stroke-linejoin="round"/>
</svg>
