<svg width="16" height="16" viewBox="0 0 16 16" fill="none" xmlns="http://www.w3.org/2000/svg">
<path d="M3.83331 12.1663V12.1747M3.83331 3.83301V3.84134M12.1666 3.83301V3.84134M12.1666 9.66634H9.66665V12.1663M14.6666 9.66634V9.67468M9.66665 14.6663H12.1666M12.1666 12.1663H14.6666V14.6663M1.33331 2.16634C1.33331 1.94533 1.42111 1.73337 1.57739 1.57709C1.73367 1.42081 1.94563 1.33301 2.16665 1.33301H5.49998C5.72099 1.33301 5.93296 1.42081 6.08924 1.57709C6.24552 1.73337 6.33331 1.94533 6.33331 2.16634V5.49967C6.33331 5.72069 6.24552 5.93265 6.08924 6.08893C5.93296 6.24521 5.72099 6.33301 5.49998 6.33301H2.16665C1.94563 6.33301 1.73367 6.24521 1.57739 6.08893C1.42111 5.93265 1.33331 5.72069 1.33331 5.49967V2.16634ZM9.66665 2.16634C9.66665 1.94533 9.75444 1.73337 9.91073 1.57709C10.067 1.42081 10.279 1.33301 10.5 1.33301H13.8333C14.0543 1.33301 14.2663 1.42081 14.4226 1.57709C14.5789 1.73337 14.6666 1.94533 14.6666 2.16634V5.49967C14.6666 5.72069 14.5789 5.93265 14.4226 6.08893C14.2663 6.24521 14.0543 6.33301 13.8333 6.33301H10.5C10.279 6.33301 10.067 6.24521 9.91073 6.08893C9.75444 5.93265 9.66665 5.72069 9.66665 5.49967V2.16634ZM1.33331 10.4997C1.33331 10.2787 1.42111 10.0667 1.57739 9.91042C1.73367 9.75414 1.94563 9.66634 2.16665 9.66634H5.49998C5.72099 9.66634 5.93296 9.75414 6.08924 9.91042C6.24552 10.0667 6.33331 10.2787 6.33331 10.4997V13.833C6.33331 14.054 6.24552 14.266 6.08924 14.4223C5.93296 14.5785 5.72099 14.6663 5.49998 14.6663H2.16665C1.94563 14.6663 1.73367 14.5785 1.57739 14.4223C1.42111 14.266 1.33331 14.054 1.33331 13.833V10.4997Z" stroke="#FAFBFC" stroke-width="1.6" stroke-linecap="round" stroke-linejoin="round"/>
</svg>
