<svg width="13" height="16" viewBox="0 0 13 16" fill="none" xmlns="http://www.w3.org/2000/svg">
<path d="M3.30889e-08 1.33357V14.6669C-4.1745e-05 14.8152 0.039479 14.9608 0.114485 15.0887C0.18949 15.2166 0.297264 15.3222 0.426687 15.3945C0.55611 15.4669 0.702494 15.5034 0.850737 15.5003C0.99898 15.4972 1.14371 15.4546 1.27 15.3769L12.1033 8.71024C12.2247 8.63568 12.3249 8.53127 12.3944 8.40698C12.4639 8.28268 12.5004 8.14265 12.5004 8.00024C12.5004 7.85783 12.4639 7.71779 12.3944 7.5935C12.3249 7.4692 12.2247 7.36479 12.1033 7.29024L1.27 0.623568C1.14371 0.545872 0.99898 0.503278 0.850737 0.500182C0.702494 0.497085 0.55611 0.533598 0.426687 0.605952C0.297264 0.678307 0.18949 0.783883 0.114485 0.911787C0.039479 1.03969 -4.1745e-05 1.18529 3.30889e-08 1.33357Z" fill="#FAFBFC"/>
</svg>
