<svg width="116" height="28" viewBox="0 0 116 28" fill="none" xmlns="http://www.w3.org/2000/svg">
<path d="M0 14H6.08696V5.47826H12.7826V28H19.4783V5.47826H28V14H34.087V0H0V14Z" fill="white"/>
<path d="M38.3478 0V28H45.0435V7.91304L53.5652 14V28H60.2609V14L68.7826 7.91304V28H74.8696V0H70L56.6087 9.13044L44.4348 0H38.3478Z" fill="white"/>
<path d="M105.304 0H98C95.5652 1.67336e-07 90.9391 0.000356883 89.4783 0C86.4354 -0.00059421 84.6094 1.82537 83.392 3.04276L83.3913 3.04348C82.4289 4.00591 80.9565 6.69565 80.9565 8.52174C80.9565 10.3478 81.5652 12.1739 82.7826 13.3913C81.5652 14.6087 80.9565 15.8255 80.3478 18.2603C79.7573 20.6224 81.2722 24.0542 82.7826 25.5646C83.679 26.461 86.4348 27.9994 88.8696 28H98.6087H107.13C109.565 28 112 26.1733 113.826 24.3472C115.043 23.1298 115.043 20.2301 115.043 18.869C115.043 17.6516 113.217 14.6081 112 13.3907C113.826 12.1733 113.826 9.12984 113.826 7.91245C113.826 6.69506 113.217 4.26028 112 3.04348C110.539 1.58297 107.13 -0.000594327 105.304 0Z" fill="white"/>
<rect x="88.3696" y="5.58716" width="18.0435" height="5.86957" rx="2.93478" fill="#202430" stroke="#202430"/>
<rect x="88.3696" y="16.5437" width="19.2609" height="5.86957" rx="2.93478" fill="#202430" stroke="#202430"/>
</svg>
