<svg width="21" height="20" viewBox="0 0 21 20" fill="none" xmlns="http://www.w3.org/2000/svg">
<path d="M3.10001 17.5V15.8333C3.10001 14.9493 3.4512 14.1014 4.07632 13.4763C4.70144 12.8512 5.54928 12.5 6.43334 12.5H9.76667C10.6507 12.5 11.4986 12.8512 12.1237 13.4763C12.7488 14.1014 13.1 14.9493 13.1 15.8333V17.5M13.9333 2.60834C14.6504 2.79192 15.2859 3.20892 15.7397 3.7936C16.1935 4.37827 16.4399 5.09736 16.4399 5.8375C16.4399 6.57765 16.1935 7.29674 15.7397 7.88141C15.2859 8.46609 14.6504 8.88309 13.9333 9.06667M18.1 17.5V15.8334C18.0958 15.0977 17.8483 14.384 17.3961 13.8037C16.9439 13.2234 16.3124 12.8089 15.6 12.625M4.76667 5.83333C4.76667 6.71739 5.11786 7.56524 5.74298 8.19036C6.3681 8.81548 7.21595 9.16667 8.10001 9.16667C8.98406 9.16667 9.83191 8.81548 10.457 8.19036C11.0821 7.56524 11.4333 6.71739 11.4333 5.83333C11.4333 4.94928 11.0821 4.10143 10.457 3.47631C9.83191 2.85119 8.98406 2.5 8.10001 2.5C7.21595 2.5 6.3681 2.85119 5.74298 3.47631C5.11786 4.10143 4.76667 4.94928 4.76667 5.83333Z" stroke="#B9B5C4" stroke-linecap="round" stroke-linejoin="round"/>
</svg>
