<svg width="21" height="20" viewBox="0 0 21 20" fill="none" xmlns="http://www.w3.org/2000/svg">
<path d="M11.8667 12.5003L15.2583 16.0703C15.544 16.3709 15.9193 16.5707 16.3282 16.6398C16.737 16.7089 17.1572 16.6436 17.5258 16.4537C17.8943 16.2637 18.1913 15.9593 18.3722 15.5863C18.5532 15.2132 18.6082 14.7915 18.5292 14.3845L17.1958 7.5245M6.86666 7.50033V9.16699M6.03333 8.33366H7.69999M11.8667 8.33366H13.5333M13.1167 4.16699C14.2217 4.16699 15.2815 4.60598 16.0629 5.38738C16.8443 6.16878 17.2833 7.22859 17.2833 8.33366C17.2833 9.43873 16.8443 10.4985 16.0629 11.2799C15.2815 12.0613 14.2217 12.5003 13.1167 12.5003H8.53332L5.18749 16.0228C4.90129 16.3241 4.52491 16.5243 4.11506 16.5931C3.70521 16.6619 3.28411 16.5956 2.91521 16.4042C2.54631 16.2129 2.2496 15.9068 2.06979 15.5321C1.88998 15.1575 1.83682 14.7345 1.91832 14.327L3.27999 7.51616C3.469 6.57154 3.97948 5.7216 4.72457 5.11098C5.46966 4.50035 6.40332 4.16676 7.36666 4.16699H13.1167Z" stroke="#B9B5C4" stroke-linecap="round" stroke-linejoin="round"/>
</svg>
