<svg width="20" height="20" viewBox="0 0 20 20" fill="none" xmlns="http://www.w3.org/2000/svg">
<path d="M6.66667 7.49967H13.3333M6.66667 10.833H11.6667M7.50001 14.9997H5.00001C4.33697 14.9997 3.70108 14.7363 3.23224 14.2674C2.7634 13.7986 2.50001 13.1627 2.50001 12.4997V5.83301C2.50001 5.16997 2.7634 4.53408 3.23224 4.06524C3.70108 3.5964 4.33697 3.33301 5.00001 3.33301H15C15.663 3.33301 16.2989 3.5964 16.7678 4.06524C17.2366 4.53408 17.5 5.16997 17.5 5.83301V12.4997C17.5 13.1627 17.2366 13.7986 16.7678 14.2674C16.2989 14.7363 15.663 14.9997 15 14.9997H12.5L10 17.4997L7.50001 14.9997Z" stroke="#B9B5C4" stroke-linecap="round" stroke-linejoin="round"/>
</svg>
