<svg width="21" height="20" viewBox="0 0 21 20" fill="none" xmlns="http://www.w3.org/2000/svg">
<path d="M7.90001 14.1667V15C7.90001 15.663 8.16341 16.2989 8.63225 16.7678C9.10109 17.2366 9.73697 17.5 10.4 17.5C11.0631 17.5 11.6989 17.2366 12.1678 16.7678C12.6366 16.2989 12.9 15.663 12.9 15V14.1667M8.73335 4.16667C8.73335 3.72464 8.90894 3.30072 9.2215 2.98816C9.53406 2.67559 9.95799 2.5 10.4 2.5C10.842 2.5 11.266 2.67559 11.5785 2.98816C11.8911 3.30072 12.0667 3.72464 12.0667 4.16667C13.0237 4.61919 13.8395 5.32361 14.4267 6.20442C15.0139 7.08523 15.3504 8.10923 15.4 9.16667V11.6667C15.4627 12.1848 15.6462 12.6809 15.9357 13.1151C16.2252 13.5493 16.6126 13.9095 17.0667 14.1667H3.73335C4.18746 13.9095 4.57485 13.5493 4.86434 13.1151C5.15382 12.6809 5.3373 12.1848 5.40001 11.6667V9.16667C5.44965 8.10923 5.7861 7.08523 6.37331 6.20442C6.96051 5.32361 7.77634 4.61919 8.73335 4.16667Z" stroke="#B9B5C4" stroke-linecap="round" stroke-linejoin="round"/>
</svg>
