<svg width="21" height="20" viewBox="0 0 21 20" fill="none" xmlns="http://www.w3.org/2000/svg">
<path d="M5.94 15.7075C6.14626 15.021 6.56831 14.4193 7.14354 13.9916C7.71877 13.564 8.41654 13.3331 9.13334 13.3333H12.4667C13.1844 13.3331 13.883 13.5645 14.4587 13.9932C15.0343 14.4218 15.4562 15.0248 15.6617 15.7125M3.3 10C3.3 10.9849 3.494 11.9602 3.87091 12.8701C4.24782 13.7801 4.80026 14.6069 5.4967 15.3033C6.19314 15.9997 7.01994 16.5522 7.92988 16.9291C8.83982 17.306 9.81509 17.5 10.8 17.5C11.7849 17.5 12.7602 17.306 13.6701 16.9291C14.5801 16.5522 15.4069 15.9997 16.1033 15.3033C16.7997 14.6069 17.3522 13.7801 17.7291 12.8701C18.106 11.9602 18.3 10.9849 18.3 10C18.3 9.01509 18.106 8.03982 17.7291 7.12987C17.3522 6.21993 16.7997 5.39314 16.1033 4.6967C15.4069 4.00026 14.5801 3.44781 13.6701 3.0709C12.7602 2.69399 11.7849 2.5 10.8 2.5C9.81509 2.5 8.83982 2.69399 7.92988 3.0709C7.01994 3.44781 6.19314 4.00026 5.4967 4.6967C4.80026 5.39314 4.24782 6.21993 3.87091 7.12987C3.494 8.03982 3.3 9.01509 3.3 10ZM8.3 8.33333C8.3 8.99637 8.56339 9.63226 9.03224 10.1011C9.50108 10.5699 10.137 10.8333 10.8 10.8333C11.463 10.8333 12.0989 10.5699 12.5678 10.1011C13.0366 9.63226 13.3 8.99637 13.3 8.33333C13.3 7.67029 13.0366 7.03441 12.5678 6.56557C12.0989 6.09673 11.463 5.83333 10.8 5.83333C10.137 5.83333 9.50108 6.09673 9.03224 6.56557C8.56339 7.03441 8.3 7.67029 8.3 8.33333Z" stroke="#B9B5C4" stroke-linecap="round" stroke-linejoin="round"/>
</svg>
