<svg width="20" height="20" viewBox="0 0 20 20" fill="none" xmlns="http://www.w3.org/2000/svg">
<path d="M9.99986 7.49956V10.8329M9.99986 14.1662H10.0082M8.53319 3.29706L1.51485 15.0137C1.37025 15.2643 1.29376 15.5484 1.29297 15.8377C1.29219 16.127 1.36716 16.4115 1.51041 16.6629C1.65366 16.9142 1.86021 17.1237 2.10952 17.2705C2.35883 17.4173 2.64222 17.4962 2.93152 17.4996H16.969C17.2583 17.4962 17.5417 17.4173 17.791 17.2705C18.0403 17.1237 18.2469 16.9142 18.3901 16.6629C18.5334 16.4115 18.6083 16.127 18.6076 15.8377C18.6068 15.5484 18.5303 15.2643 18.3857 15.0137L11.3665 3.29706C11.2187 3.05372 11.0107 2.85255 10.7626 2.71294C10.5145 2.57334 10.2346 2.5 9.94985 2.5C9.66514 2.5 9.38524 2.57334 9.1371 2.71294C8.88897 2.85255 8.68099 3.05372 8.53319 3.29706Z" stroke="#FAFBFC" stroke-width="1.6" stroke-linecap="round" stroke-linejoin="round"/>
</svg>
