<svg width="20" height="20" viewBox="0 0 20 20" fill="none" xmlns="http://www.w3.org/2000/svg">
<path d="M11.5556 7V5.5C11.5556 5.10218 11.3917 4.72064 11.0999 4.43934C10.8082 4.15804 10.4126 4 10 4H4.55556C4.143 4 3.74733 4.15804 3.45561 4.43934C3.16389 4.72064 3 5.10218 3 5.5V14.5C3 14.8978 3.16389 15.2794 3.45561 15.5607C3.74733 15.842 4.143 16 4.55556 16H10C10.4126 16 10.8082 15.842 11.0999 15.5607C11.3917 15.2794 11.5556 14.8978 11.5556 14.5V13M6.11111 10H17M17 10L14.6667 7.75M17 10L14.6667 12.25" stroke="#FAFBFC" stroke-width="1.6" stroke-linecap="round" stroke-linejoin="round"/>
</svg>
