<svg width="20" height="20" viewBox="0 0 20 20" fill="none" xmlns="http://www.w3.org/2000/svg">
<path d="M13.75 8.75033C14.2102 8.75033 14.5833 8.37723 14.5833 7.91699C14.5833 7.45675 14.2102 7.08366 13.75 7.08366C13.2898 7.08366 12.9167 7.45675 12.9167 7.91699C12.9167 8.37723 13.2898 8.75033 13.75 8.75033Z" fill="#FAFBFC"/>
<path d="M13.75 4.16699C14.2651 4.16749 14.7746 4.27411 15.2468 4.48022C15.7189 4.68632 16.1434 4.98749 16.494 5.36493C16.8446 5.74237 17.1136 6.18799 17.2844 6.67401C17.4551 7.16002 17.5239 7.67601 17.4865 8.18978C17.449 8.70355 17.3061 9.20409 17.0666 9.66019C16.8271 10.1163 16.4963 10.5182 16.0946 10.8407C15.693 11.1633 15.2292 11.3997 14.7322 11.5351C14.2352 11.6705 13.7156 11.7021 13.2058 11.6278L9.58333 14.1353V14.167C9.58443 14.8054 9.34127 15.42 8.90369 15.8849C8.46612 16.3497 7.8673 16.6295 7.23 16.667H7.08333C6.50677 16.667 5.94792 16.4678 5.50143 16.103C5.05494 15.7382 4.74826 15.2303 4.63333 14.6653L2.5 13.7503V10.8337L5.425 12.2962C5.74121 12.0145 6.12401 11.818 6.53724 11.7255C6.95048 11.6329 7.38049 11.6472 7.78667 11.767L10.0592 8.58533C9.9613 8.04499 9.9833 7.48974 10.1236 6.95884C10.2639 6.42794 10.5191 5.93432 10.8711 5.51289C11.2232 5.09145 11.6635 4.75247 12.161 4.51991C12.6584 4.28734 13.2009 4.16686 13.75 4.16699Z" stroke="#FAFBFC" stroke-width="1.6" stroke-linecap="round" stroke-linejoin="round"/>
<path d="M13.75 8.75033C14.2102 8.75033 14.5833 8.37723 14.5833 7.91699C14.5833 7.45675 14.2102 7.08366 13.75 7.08366C13.2898 7.08366 12.9167 7.45675 12.9167 7.91699C12.9167 8.37723 13.2898 8.75033 13.75 8.75033Z" stroke="#FAFBFC" stroke-width="1.6" stroke-linecap="round" stroke-linejoin="round"/>
</svg>
