<svg width="20" height="18" viewBox="0 0 20 18" fill="none" xmlns="http://www.w3.org/2000/svg">
<path d="M9.99986 6.49956V9.83289M9.99986 13.1662H10.0082M8.53319 2.29706L1.51485 14.0137C1.37025 14.2643 1.29376 14.5484 1.29297 14.8377C1.29219 15.127 1.36716 15.4115 1.51041 15.6629C1.65366 15.9142 1.86021 16.1237 2.10952 16.2705C2.35883 16.4173 2.64222 16.4962 2.93152 16.4996H16.969C17.2583 16.4962 17.5417 16.4173 17.791 16.2705C18.0403 16.1237 18.2469 15.9142 18.3901 15.6629C18.5334 15.4115 18.6083 15.127 18.6076 14.8377C18.6068 14.5484 18.5303 14.2643 18.3857 14.0137L11.3665 2.29706C11.2187 2.05372 11.0107 1.85255 10.7626 1.71294C10.5145 1.57334 10.2346 1.5 9.94985 1.5C9.66514 1.5 9.38524 1.57334 9.1371 1.71294C8.88897 1.85255 8.68099 2.05372 8.53319 2.29706Z" stroke="#FAFBFC" stroke-width="1.6" stroke-linecap="round" stroke-linejoin="round"/>
</svg>
