<svg width="37" height="36" viewBox="0 0 37 36" fill="none" xmlns="http://www.w3.org/2000/svg">
<path d="M5.60002 34.5855H31.4C33.4356 34.5855 35.0857 32.9353 35.0857 30.8998V5.09978C35.0857 3.06421 33.4356 1.41406 31.4 1.41406H5.60002C3.56446 1.41406 1.91431 3.06421 1.91431 5.09978V30.8998C1.91431 32.9353 3.56446 34.5855 5.60002 34.5855ZM5.60002 34.5855L25.8714 14.3141L35.0857 23.5283M14.8143 11.5498C14.8143 13.0764 13.5767 14.3141 12.05 14.3141C10.5233 14.3141 9.28574 13.0764 9.28574 11.5498C9.28574 10.0231 10.5233 8.78549 12.05 8.78549C13.5767 8.78549 14.8143 10.0231 14.8143 11.5498Z" stroke="#3A595F" stroke-width="2" stroke-linecap="round" stroke-linejoin="round"/>
</svg>
