<svg width="16" height="15" viewBox="0 0 16 15" fill="none" xmlns="http://www.w3.org/2000/svg">
<path d="M14.6107 8.3674C14.4534 9.56736 13.9723 10.7019 13.2192 11.6492C12.4661 12.5966 11.4693 13.321 10.3357 13.7449C9.20212 14.1688 7.97454 14.2761 6.7846 14.0554C5.59467 13.8346 4.48727 13.2941 3.58118 12.4918C2.67509 11.6895 2.00448 10.6557 1.64128 9.50127C1.27808 8.34682 1.23599 7.11527 1.51952 5.93872C1.80305 4.76216 2.4015 3.68498 3.2507 2.82269C4.0999 1.96041 5.16781 1.34555 6.33989 1.04406C9.58906 0.210728 12.9524 1.88323 14.1941 4.9999M14.6666 0.833216V4.99988H10.4999" stroke="#FAFBFC" stroke-width="1.6" stroke-linecap="round" stroke-linejoin="round"/>
</svg>
