<svg width="18" height="16" viewBox="0 0 18 16" fill="none" xmlns="http://www.w3.org/2000/svg">
<path d="M3.16667 3.83301H4C4.44203 3.83301 4.86595 3.65741 5.17851 3.34485C5.49107 3.03229 5.66667 2.60837 5.66667 2.16634C5.66667 1.94533 5.75446 1.73337 5.91074 1.57709C6.06702 1.42081 6.27899 1.33301 6.5 1.33301H11.5C11.721 1.33301 11.933 1.42081 12.0893 1.57709C12.2455 1.73337 12.3333 1.94533 12.3333 2.16634C12.3333 2.60837 12.5089 3.03229 12.8215 3.34485C13.134 3.65741 13.558 3.83301 14 3.83301H14.8333C15.2754 3.83301 15.6993 4.0086 16.0118 4.32116C16.3244 4.63372 16.5 5.05765 16.5 5.49967V12.9997C16.5 13.4417 16.3244 13.8656 16.0118 14.1782C15.6993 14.4907 15.2754 14.6663 14.8333 14.6663H3.16667C2.72464 14.6663 2.30072 14.4907 1.98816 14.1782C1.67559 13.8656 1.5 13.4417 1.5 12.9997V5.49967C1.5 5.05765 1.67559 4.63372 1.98816 4.32116C2.30072 4.0086 2.72464 3.83301 3.16667 3.83301Z" stroke="#FAFBFC" stroke-width="1.6" stroke-linecap="round" stroke-linejoin="round"/>
<path d="M6.5 8.83301C6.5 9.49605 6.76339 10.1319 7.23223 10.6008C7.70107 11.0696 8.33696 11.333 9 11.333C9.66304 11.333 10.2989 11.0696 10.7678 10.6008C11.2366 10.1319 11.5 9.49605 11.5 8.83301C11.5 8.16997 11.2366 7.53408 10.7678 7.06524C10.2989 6.5964 9.66304 6.33301 9 6.33301C8.33696 6.33301 7.70107 6.5964 7.23223 7.06524C6.76339 7.53408 6.5 8.16997 6.5 8.83301Z" stroke="#FAFBFC" stroke-width="1.6" stroke-linecap="round" stroke-linejoin="round"/>
</svg>
