<svg width="18" height="18" viewBox="0 0 18 18" fill="none" xmlns="http://www.w3.org/2000/svg">
<path d="M1.5 16.5L3.58333 14.4167M14.4167 3.58333L16.5 1.5M7.33333 8.16667L5.66667 9.83333M9.83333 10.6667L8.16667 12.3333M4.83333 9L9 13.1667L7.75 14.4167C7.47805 14.6976 7.15292 14.9216 6.79354 15.0756C6.43416 15.2296 6.04773 15.3106 5.65676 15.3137C5.26578 15.3169 4.87808 15.2422 4.51625 15.0941C4.15442 14.9459 3.8257 14.7272 3.54923 14.4508C3.27276 14.1743 3.05407 13.8456 2.90591 13.4837C2.75776 13.1219 2.68309 12.7342 2.68626 12.3432C2.68944 11.9523 2.77039 11.5658 2.9244 11.2065C3.07841 10.8471 3.30241 10.5219 3.58333 10.25L4.83333 9ZM13.1667 9L9 4.83333L10.25 3.58333C10.5219 3.30241 10.8471 3.07841 11.2065 2.9244C11.5658 2.77039 11.9523 2.68944 12.3432 2.68626C12.7342 2.68309 13.1219 2.75776 13.4837 2.90591C13.8456 3.05407 14.1743 3.27276 14.4508 3.54923C14.7272 3.8257 14.9459 4.15442 15.0941 4.51625C15.2422 4.87808 15.3169 5.26578 15.3137 5.65676C15.3106 6.04773 15.2296 6.43416 15.0756 6.79354C14.9216 7.15292 14.6976 7.47805 14.4167 7.75L13.1667 9Z" stroke="#FAFBFC" stroke-width="1.6" stroke-linecap="round" stroke-linejoin="round"/>
</svg>
