<svg width="16" height="14" viewBox="0 0 16 14" fill="none" xmlns="http://www.w3.org/2000/svg">
<path d="M9.55556 4V2.5C9.55556 2.10218 9.39167 1.72064 9.09994 1.43934C8.80822 1.15804 8.41256 1 8 1H2.55556C2.143 1 1.74733 1.15804 1.45561 1.43934C1.16389 1.72064 1 2.10218 1 2.5V11.5C1 11.8978 1.16389 12.2794 1.45561 12.5607C1.74733 12.842 2.143 13 2.55556 13H8C8.41256 13 8.80822 12.842 9.09994 12.5607C9.39167 12.2794 9.55556 11.8978 9.55556 11.5V10M4.11111 7H15M15 7L12.6667 4.75M15 7L12.6667 9.25" stroke="#FAFBFC" stroke-width="1.6" stroke-linecap="round" stroke-linejoin="round"/>
</svg>
