<svg width="14" height="19" viewBox="0 0 14 19" fill="none" xmlns="http://www.w3.org/2000/svg">
<path d="M1.1665 8.33366C1.1665 9.88075 1.78109 11.3645 2.87505 12.4584C3.96901 13.5524 5.45274 14.167 6.99984 14.167M6.99984 14.167C8.54693 14.167 10.0307 13.5524 11.1246 12.4584C12.2186 11.3645 12.8332 9.88075 12.8332 8.33366M6.99984 14.167V17.5003M3.6665 17.5003H10.3332M4.49984 4.16699C4.49984 3.50395 4.76323 2.86807 5.23207 2.39923C5.70091 1.93038 6.3368 1.66699 6.99984 1.66699C7.66288 1.66699 8.29876 1.93038 8.7676 2.39923C9.23645 2.86807 9.49984 3.50395 9.49984 4.16699V8.33366C9.49984 8.9967 9.23645 9.63258 8.7676 10.1014C8.29876 10.5703 7.66288 10.8337 6.99984 10.8337C6.3368 10.8337 5.70091 10.5703 5.23207 10.1014C4.76323 9.63258 4.49984 8.9967 4.49984 8.33366V4.16699Z" stroke="#FAFBFC" stroke-width="1.6" stroke-linecap="round" stroke-linejoin="round"/>
</svg>
