<svg width="16" height="18" viewBox="0 0 16 18" fill="none" xmlns="http://www.w3.org/2000/svg">
<path d="M5.49998 13.1667V14C5.49998 14.663 5.76337 15.2989 6.23221 15.7678C6.70105 16.2366 7.33694 16.5 7.99998 16.5C8.66302 16.5 9.29891 16.2366 9.76775 15.7678C10.2366 15.2989 10.5 14.663 10.5 14V13.1667M6.33331 3.16667C6.33331 2.72464 6.50891 2.30072 6.82147 1.98816C7.13403 1.67559 7.55795 1.5 7.99998 1.5C8.44201 1.5 8.86593 1.67559 9.17849 1.98816C9.49105 2.30072 9.66665 2.72464 9.66665 3.16667C10.6237 3.61919 11.4395 4.32361 12.0267 5.20442C12.6139 6.08523 12.9503 7.10923 13 8.16667V10.6667C13.0627 11.1848 13.2462 11.6809 13.5357 12.1151C13.8251 12.5493 14.2125 12.9095 14.6666 13.1667H1.33331C1.78743 12.9095 2.17482 12.5493 2.4643 12.1151C2.75378 11.6809 2.93727 11.1848 2.99998 10.6667V8.16667C3.04961 7.10923 3.38606 6.08523 3.97327 5.20442C4.56048 4.32361 5.37631 3.61919 6.33331 3.16667Z" stroke="#FAFBFC" stroke-width="1.6" stroke-linecap="round" stroke-linejoin="round"/>
</svg>
