<svg width="16" height="18" viewBox="0 0 16 18" fill="none" xmlns="http://www.w3.org/2000/svg">
<path d="M5.49998 8.16643C5.49998 8.82947 5.76337 9.46535 6.23221 9.93419C6.70105 10.403 7.33694 10.6664 7.99998 10.6664C8.66302 10.6664 9.29891 10.403 9.76775 9.93419C10.2366 9.46535 10.5 8.82947 10.5 8.16643C10.5 7.50338 10.2366 6.8675 9.76775 6.39866C9.29891 5.92982 8.66302 5.66643 7.99998 5.66643C7.33694 5.66643 6.70105 5.92982 6.23221 6.39866C5.76337 6.8675 5.49998 7.50338 5.49998 8.16643Z" stroke="#FAFBFC" stroke-width="1.6" stroke-linecap="round" stroke-linejoin="round"/>
<path d="M12.7141 12.8806L9.17832 16.4164C8.8658 16.7286 8.44214 16.904 8.0004 16.904C7.55866 16.904 7.135 16.7286 6.82248 16.4164L3.28582 12.8806C2.3535 11.9482 1.7186 10.7603 1.46139 9.46714C1.20418 8.17395 1.33622 6.83352 1.84082 5.61536C2.34541 4.39721 3.1999 3.35604 4.29622 2.62351C5.39254 1.89098 6.68146 1.5 7.99998 1.5C9.31851 1.5 10.6074 1.89098 11.7037 2.62351C12.8001 3.35604 13.6546 4.39721 14.1591 5.61536C14.6637 6.83352 14.7958 8.17395 14.5386 9.46714C14.2814 10.7603 13.6465 11.9482 12.7141 12.8806Z" stroke="#FAFBFC" stroke-width="1.6" stroke-linecap="round" stroke-linejoin="round"/>
</svg>
