<svg width="20" height="21" viewBox="0 0 20 21" fill="none" xmlns="http://www.w3.org/2000/svg">
<path d="M6.66667 18V17.1667C6.66667 16.7246 6.84226 16.3007 7.15482 15.9882C7.46738 15.6756 7.89131 15.5 8.33333 15.5H11.6667C12.1087 15.5 12.5326 15.6756 12.8452 15.9882C13.1577 16.3007 13.3333 16.7246 13.3333 17.1667V18M14.1667 8.83333H15.8333C16.2754 8.83333 16.6993 9.00893 17.0118 9.32149C17.3244 9.63405 17.5 10.058 17.5 10.5V11.3333M2.5 11.3333V10.5C2.5 10.058 2.67559 9.63405 2.98816 9.32149C3.30072 9.00893 3.72464 8.83333 4.16667 8.83333H5.83333M8.33333 11.3333C8.33333 11.7754 8.50893 12.1993 8.82149 12.5118C9.13405 12.8244 9.55797 13 10 13C10.442 13 10.866 12.8244 11.1785 12.5118C11.4911 12.1993 11.6667 11.7754 11.6667 11.3333C11.6667 10.8913 11.4911 10.4674 11.1785 10.1548C10.866 9.84226 10.442 9.66667 10 9.66667C9.55797 9.66667 9.13405 9.84226 8.82149 10.1548C8.50893 10.4674 8.33333 10.8913 8.33333 11.3333ZM12.5 4.66667C12.5 5.10869 12.6756 5.53262 12.9882 5.84518C13.3007 6.15774 13.7246 6.33333 14.1667 6.33333C14.6087 6.33333 15.0326 6.15774 15.3452 5.84518C15.6577 5.53262 15.8333 5.10869 15.8333 4.66667C15.8333 4.22464 15.6577 3.80072 15.3452 3.48816C15.0326 3.17559 14.6087 3 14.1667 3C13.7246 3 13.3007 3.17559 12.9882 3.48816C12.6756 3.80072 12.5 4.22464 12.5 4.66667ZM4.16667 4.66667C4.16667 5.10869 4.34226 5.53262 4.65482 5.84518C4.96738 6.15774 5.39131 6.33333 5.83333 6.33333C6.27536 6.33333 6.69928 6.15774 7.01184 5.84518C7.3244 5.53262 7.5 5.10869 7.5 4.66667C7.5 4.22464 7.3244 3.80072 7.01184 3.48816C6.69928 3.17559 6.27536 3 5.83333 3C5.39131 3 4.96738 3.17559 4.65482 3.48816C4.34226 3.80072 4.16667 4.22464 4.16667 4.66667Z" stroke="#FAFBFC" stroke-width="1.6" stroke-linecap="round" stroke-linejoin="round"/>
</svg>
