<svg width="20" height="21" viewBox="0 0 20 21" fill="none" xmlns="http://www.w3.org/2000/svg">
<g clip-path="url(#clip0_1160_7215)">
<path d="M9.99999 14.6667H3.33333C3.78744 14.4095 4.17484 14.0493 4.46432 13.6151C4.7538 13.1809 4.93728 12.6848 4.99999 12.1667V9.66667C5.04963 8.60923 5.38608 7.58523 5.97329 6.70442C6.56049 5.82361 7.37632 5.11919 8.33333 4.66667C8.33333 4.22464 8.50892 3.80072 8.82148 3.48816C9.13404 3.17559 9.55797 3 9.99999 3C10.442 3 10.8659 3.17559 11.1785 3.48816C11.4911 3.80072 11.6667 4.22464 11.6667 4.66667C12.6237 5.11919 13.4395 5.82361 14.0267 6.70442C14.6139 7.58523 14.9504 8.60923 15 9.66667V10.0833M15.8341 18C15.3921 18 14.9682 17.8244 14.6556 17.5118C14.3431 17.1993 14.1675 16.7754 14.1675 16.3333C14.1675 15.8913 14.3431 15.4674 14.6556 15.1548C14.9682 14.8423 15.3921 14.6667 15.8341 14.6667M15.8341 18C16.2762 18 16.7001 17.8244 17.0127 17.5118C17.3252 17.1993 17.5008 16.7754 17.5008 16.3333C17.5008 15.8913 17.3252 15.4674 17.0127 15.1548C16.7001 14.8423 16.2762 14.6667 15.8341 14.6667M15.8341 18V19.25M15.8341 14.6667V13.4167M18.36 14.875L17.2775 15.5M14.3916 17.1667L13.3083 17.7917M13.3083 14.875L14.3916 15.5M17.2775 17.1667L18.3608 17.7917M7.49999 14.6667V15.5C7.49999 16.163 7.76339 16.7989 8.23223 17.2678C8.70107 17.7366 9.33695 18 9.99999 18" stroke="#B9B5C4" stroke-width="1.6" stroke-linecap="round" stroke-linejoin="round"/>
</g>
<defs>
<clipPath id="clip0_1160_7215">
<rect width="20" height="20" fill="white" transform="translate(0 0.5)"/>
</clipPath>
</defs>
</svg>
