<svg width="20" height="21" viewBox="0 0 20 21" fill="none" xmlns="http://www.w3.org/2000/svg">
<path d="M7.5 4.66667H5.83334C5.39131 4.66667 4.96739 4.84226 4.65483 5.15482C4.34227 5.46738 4.16667 5.89131 4.16667 6.33333V16.3333C4.16667 16.7754 4.34227 17.1993 4.65483 17.5118C4.96739 17.8244 5.39131 18 5.83334 18H14.1667C14.6087 18 15.0326 17.8244 15.3452 17.5118C15.6577 17.1993 15.8333 16.7754 15.8333 16.3333V6.33333C15.8333 5.89131 15.6577 5.46738 15.3452 5.15482C15.0326 4.84226 14.6087 4.66667 14.1667 4.66667H12.5M7.5 4.66667C7.5 4.22464 7.6756 3.80072 7.98816 3.48816C8.30072 3.17559 8.72464 3 9.16667 3H10.8333C11.2754 3 11.6993 3.17559 12.0118 3.48816C12.3244 3.80072 12.5 4.22464 12.5 4.66667M7.5 4.66667C7.5 5.10869 7.6756 5.53262 7.98816 5.84518C8.30072 6.15774 8.72464 6.33333 9.16667 6.33333H10.8333C11.2754 6.33333 11.6993 6.15774 12.0118 5.84518C12.3244 5.53262 12.5 5.10869 12.5 4.66667M7.5 14.6667V10.5M10 14.6667V13.8333M12.5 14.6667V12.1667" stroke="#B9B5C4" stroke-width="1.6" stroke-linecap="round" stroke-linejoin="round"/>
</svg>
