<svg width="20" height="21" viewBox="0 0 20 21" fill="none" xmlns="http://www.w3.org/2000/svg">
<path d="M2.5 18V16.3333C2.5 15.4493 2.85119 14.6014 3.47631 13.9763C4.10143 13.3512 4.94928 13 5.83333 13H9.16667C10.0507 13 10.8986 13.3512 11.5237 13.9763C12.1488 14.6014 12.5 15.4493 12.5 16.3333V18M13.3333 3.10834C14.0503 3.29192 14.6859 3.70892 15.1397 4.2936C15.5935 4.87827 15.8399 5.59736 15.8399 6.3375C15.8399 7.07765 15.5935 7.79674 15.1397 8.38141C14.6859 8.96609 14.0503 9.38309 13.3333 9.56667M17.5 18V16.3334C17.4958 15.5977 17.2483 14.884 16.7961 14.3037C16.3439 13.7234 15.7124 13.3089 15 13.125M4.16667 6.33333C4.16667 7.21739 4.51786 8.06524 5.14298 8.69036C5.7681 9.31548 6.61594 9.66667 7.5 9.66667C8.38405 9.66667 9.2319 9.31548 9.85702 8.69036C10.4821 8.06524 10.8333 7.21739 10.8333 6.33333C10.8333 5.44928 10.4821 4.60143 9.85702 3.97631C9.2319 3.35119 8.38405 3 7.5 3C6.61594 3 5.7681 3.35119 5.14298 3.97631C4.51786 4.60143 4.16667 5.44928 4.16667 6.33333Z" stroke="#FAFBFC" stroke-width="1.6" stroke-linecap="round" stroke-linejoin="round"/>
</svg>
