<svg width="45" height="44" viewBox="0 0 45 44" fill="none" xmlns="http://www.w3.org/2000/svg">
<path d="M16.2143 31.4294C24.893 31.4294 31.9285 24.3939 31.9285 15.7151C31.9285 14.7315 31.8382 13.769 31.6653 12.8355C30.7318 12.6626 29.7693 12.5723 28.7857 12.5723C20.1069 12.5723 13.0714 19.6078 13.0714 28.2866C13.0714 29.2701 13.1618 30.2326 13.3347 31.1662C14.2682 31.339 15.2307 31.4294 16.2143 31.4294Z" fill="#175CD3"/>
<path fill-rule="evenodd" clip-rule="evenodd" d="M13.3347 31.1653C6.03115 29.8127 0.499969 23.4095 0.499969 15.7143C0.499969 7.03553 7.5355 0 16.2143 0C23.9094 0 30.3127 5.53118 31.6653 12.8347C30.7318 12.6618 29.7693 12.5714 28.7857 12.5714C20.1069 12.5714 13.0714 19.607 13.0714 28.2857C13.0714 29.2693 13.1618 30.2318 13.3347 31.1653Z" fill="#1570EF"/>
<path fill-rule="evenodd" clip-rule="evenodd" d="M16.2142 31.4279C24.893 31.4279 31.9285 24.3923 31.9285 15.7136C31.9285 14.73 31.8381 13.7675 31.6652 12.834C38.9687 14.1866 44.4999 20.5898 44.4999 28.285C44.4999 36.9638 37.4644 43.9993 28.7856 43.9993C21.0905 43.9993 14.6872 38.4681 13.3346 31.1646C14.2681 31.3375 15.2306 31.4279 16.2142 31.4279Z" fill="#2E90FA"/>
</svg>
