<svg width="18" height="16" viewBox="0 0 18 16" fill="none" xmlns="http://www.w3.org/2000/svg">
<path d="M11.5 4.66684C12.0175 5.05496 12.4375 5.55822 12.7268 6.13679C13.0161 6.71535 13.1667 7.35332 13.1667 8.00018C13.1667 8.64703 13.0161 9.285 12.7268 9.86357C12.4375 10.4421 12.0175 10.9454 11.5 11.3335M13.75 2.16684C14.62 2.86989 15.3217 3.75862 15.8037 4.76795C16.2858 5.77727 16.536 6.88164 16.536 8.00018C16.536 9.11871 16.2858 10.2231 15.8037 11.2324C15.3217 12.2417 14.62 13.1305 13.75 13.8335M4 10.5002H2.33333C2.11232 10.5002 1.90036 10.4124 1.74408 10.2561C1.5878 10.0998 1.5 9.88786 1.5 9.66685V6.33351C1.5 6.1125 1.5878 5.90054 1.74408 5.74426C1.90036 5.58798 2.11232 5.50018 2.33333 5.50018H4L6.91667 1.75018C6.9895 1.60871 7.11054 1.49795 7.25791 1.43792C7.40528 1.3779 7.56925 1.37256 7.72021 1.42288C7.87117 1.4732 7.99915 1.57586 8.08103 1.7123C8.16291 1.84874 8.19328 2.00997 8.16667 2.16685V13.8335C8.19328 13.9904 8.16291 14.1516 8.08103 14.2881C7.99915 14.4245 7.87117 14.5272 7.72021 14.5775C7.56925 14.6278 7.40528 14.6225 7.25791 14.5624C7.11054 14.5024 6.9895 14.3917 6.91667 14.2502L4 10.5002Z" stroke="#FAFBFC" stroke-width="1.6" stroke-linecap="round" stroke-linejoin="round"/>
</svg>
