<svg width="20" height="20" viewBox="0 0 20 20" fill="none" xmlns="http://www.w3.org/2000/svg">
<path d="M2.5 2.50033L17.5 17.5003M7.5 4.16699C7.5 3.50395 7.76339 2.86807 8.23223 2.39923C8.70107 1.93038 9.33696 1.66699 10 1.66699C10.663 1.66699 11.2989 1.93038 11.7678 2.39923C12.2366 2.86807 12.5 3.50395 12.5 4.16699V8.33366C12.5 8.58045 12.4635 8.82589 12.3917 9.06199M10.725 10.7287C10.3514 10.8419 9.95647 10.866 9.57186 10.7992C9.18724 10.7323 8.82363 10.5763 8.51015 10.3437C8.19666 10.111 7.94201 9.80819 7.7666 9.45944C7.59118 9.11069 7.49988 8.72571 7.5 8.33533V7.50199M4.16667 8.33366C4.16648 9.38645 4.45122 10.4197 4.99068 11.3237C5.53014 12.2278 6.30421 12.969 7.2308 13.4688C8.1574 13.9686 9.20198 14.2083 10.2538 14.1625C11.3056 14.1167 12.3254 13.7871 13.205 13.2087M14.8717 11.542C15.4999 10.5901 15.8337 9.47418 15.8317 8.33366M6.66667 17.5003H13.3333M10 14.167V17.5003" stroke="#FAFBFC" stroke-width="1.6" stroke-linecap="round" stroke-linejoin="round"/>
</svg>
